# xmcd
#
# Track frame offsets:
#	150
#	11002
#	23338
#	35611
#	51471
#	69410
#	88275
#	106230
#	113633
#	122952
#	137349
#	145817
#	166870
#	183212
#	200015
#	211097
#	225089
#	239658
#
# Disc length: 3405 seconds
#
# Revision: 1
# Processed by: cddbd v1.5.2PL0 Copyright (c) Steve Scherf et al.
# Submitted via: audiograbber 1.83.01
#
DISCID=ee0d4b12
DTITLE=Rob Agerbeek - Three of a kind
DYEAR=1900
DGENRE=
TTITLE0=Boogie Woogie at the Civic Opera
TTITLE1=Barrelhouse boogie
TTITLE2=Yancey Special
TTITLE3=Lock, stock and barrel
TTITLE4=Jammin' the Boogie
TTITLE5=Suitcase Blues
TTITLE6=Lazy Left Hand
TTITLE7=Meade's Stomp
TTITLE8=Shout for Joy
TTITLE9=I Wish I Knew How It Would Feel To Be Free
TTITLE10=Glendale Glide
TTITLE11=Song for Martin
TTITLE12=Little Man Boogie
TTITLE13=Chicago On My Mind
TTITLE14=Roll 'Em Pete
TTITLE15=Oh, Lady Be Good
TTITLE16=Bottomland Boogie
TTITLE17=Perdido Boogie
EXTD=
EXTT0=
EXTT1=
EXTT2=
EXTT3=
EXTT4=
EXTT5=
EXTT6=
EXTT7=
EXTT8=
EXTT9=
EXTT10=
EXTT11=
EXTT12=
EXTT13=
EXTT14=
EXTT15=
EXTT16=
EXTT17=
PLAYORDER=
